<?xml version="1.0" encoding="utf-8"?>
<!-- Generator: Adobe Illustrator 26.5.2, SVG Export Plug-In . SVG Version: 6.00 Build 0)  -->
<svg version="1.1" id="Lag_3" xmlns="http://www.w3.org/2000/svg" xmlns:xlink="http://www.w3.org/1999/xlink" x="0px" y="0px"
	 viewBox="0 0 250 400" style="enable-background:new 0 0 250 400;" xml:space="preserve">
<style type="text/css">
	.st0{fill:#F2F2F2;}
	.st1{fill:#FFFFFF;}
	.st2{fill:#E4F1F0;}
	.st3{fill:#E6E6E6;}
	.st4{fill:#FFB6B6;}
	.st5{fill:#2F2E41;}
	.st6{fill:#00796B;}
</style>
<rect class="st0" width="250" height="400"/>
<g id="Group_544" transform="translate(-26.368)">
	<path id="Path_31" class="st0" d="M238.06,398.75H65.4c-18.74-0.02-33.93-15.21-33.95-33.95V34.88
		C31.47,16.14,46.66,0.95,65.4,0.93h172.67c18.74,0.02,33.93,15.21,33.95,33.95V364.8C271.99,383.54,256.8,398.73,238.06,398.75z"/>
	<path id="Path_32" class="st0" d="M272.01,122.29c-0.79,0-1.44,0.64-1.44,1.44v45.96c0,0.79,0.64,1.44,1.44,1.44
		s1.44-0.64,1.44-1.44v-45.96C273.44,122.93,272.8,122.29,272.01,122.29z"/>
	<path id="Path_33" class="st1" d="M268.77,34.88V364.8c0,16.19-12.56,29.6-28.72,30.65l0,0c-0.24,0.01-0.47,0.03-0.72,0.04
		c-0.42,0.02-0.85,0.03-1.28,0.03c0,0-1.58-0.11-4.47-0.33c-2.92-0.22-7.16-0.54-12.45-0.96c-1.59-0.12-3.26-0.26-5.03-0.4
		c-3.52-0.29-7.38-0.6-11.53-0.96c-1.65-0.14-3.36-0.29-5.1-0.44c-8.92-0.77-18.91-1.67-29.44-2.69c-1.78-0.16-3.58-0.34-5.39-0.52
		c-0.47-0.05-0.95-0.09-1.44-0.15c-7.51-0.74-15.23-1.54-22.98-2.38l-1.44-0.15c-13.35-1.47-26.75-3.07-39.29-4.8
		c-9.64-1.33-18.78-2.71-26.98-4.16c-2.67-0.47-5.24-0.95-7.7-1.43c-0.48-0.09-0.96-0.19-1.44-0.29
		c-17.36-3.48-28.73-7.22-28.73-11.07V34.88c0-16.96,13.76-30.72,30.72-30.71c0,0,0,0,0.01,0h18.34c2.92,0.03,5.33,2.29,5.54,5.21
		c0.02,0.19,0.04,0.39,0.08,0.58c0.6,2.94,3.21,5.03,6.21,4.98h112.32c3,0.05,5.61-2.05,6.21-4.98c0.04-0.19,0.06-0.39,0.08-0.58
		c0.2-2.91,2.62-5.18,5.54-5.21h18.34C255.02,4.16,268.77,17.92,268.77,34.88z"/>
	<path id="Path_34" class="st0" d="M30.73,87.82c-0.79,0-1.44,0.64-1.44,1.44v11.49c0,0.79,0.64,1.44,1.44,1.44
		c0.79,0,1.44-0.64,1.44-1.44V89.26C32.17,88.46,31.52,87.82,30.73,87.82z"/>
	<path id="Path_35" class="st0" d="M30.73,122.29c-0.79,0-1.44,0.64-1.44,1.44v22.26c0,0.79,0.64,1.44,1.44,1.44
		c0.79,0,1.44-0.64,1.44-1.44l0,0v-22.26C32.17,122.93,31.52,122.29,30.73,122.29z"/>
	<path id="Path_36" class="st0" d="M30.73,153.88c-0.79,0-1.44,0.64-1.44,1.44v22.26c0,0.79,0.64,1.44,1.44,1.44
		c0.79,0,1.44-0.64,1.44-1.44v-22.26C32.17,154.53,31.52,153.88,30.73,153.88z"/>
	<path id="Rectangle_321" class="st0" d="M57.3,9.19h24.41c0.99,0,1.8,0.8,1.8,1.8l0,0c0,0.99-0.8,1.8-1.8,1.8H57.3
		c-0.99,0-1.8-0.8-1.8-1.8l0,0C55.5,9.99,56.31,9.19,57.3,9.19z"/>
	<circle id="Ellipse_2" class="st0" cx="224.25" cy="9.91" r="2.87"/>
	<circle id="Ellipse_3" class="st0" cx="232.15" cy="9.91" r="2.87"/>
	<circle id="Ellipse_4" class="st0" cx="240.05" cy="9.91" r="2.87"/>
	<ellipse id="Ellipse_5" class="st2" cx="69.44" cy="100.33" rx="13.94" ry="13.64"/>
	<path id="Path_37" class="st3" d="M181.17,95.67h-75.02c-2.58,0-4.67-2.09-4.66-4.67c0-2.58,2.09-4.66,4.66-4.66h75.02
		c2.58,0,4.67,2.09,4.67,4.66C185.84,93.57,183.75,95.66,181.17,95.67C181.17,95.67,181.17,95.67,181.17,95.67z"/>
	<path id="Path_38" class="st0" d="M60.57,253.61c-1.2,0-2.17,0.97-2.17,2.17c0,1.2,0.97,2.17,2.17,2.17c0,0,0,0,0,0h78.57
		c1.2,0,2.17-0.97,2.17-2.17s-0.97-2.17-2.17-2.17c0,0,0,0,0,0H60.57z"/>
	<path id="Path_39" class="st3" d="M239.71,111.46H106.15c-2.58,0-4.67-2.09-4.66-4.67c0-2.58,2.09-4.66,4.66-4.66h133.56
		c2.58,0,4.67,2.09,4.66,4.67C244.38,109.37,242.29,111.46,239.71,111.46z"/>
	<path id="Path_40" class="st3" d="M87.28,45.4H58.73c-1.98,0-3.59-1.61-3.59-3.59s1.61-3.59,3.59-3.59h28.54
		c1.98,0,3.59,1.61,3.59,3.59S89.26,45.4,87.28,45.4z"/>
	<path id="Rectangle_322" class="st2" d="M210.81,38.58h28.54c1.78,0,3.23,1.45,3.23,3.23v0c0,1.78-1.45,3.23-3.23,3.23h-28.54
		c-1.78,0-3.23-1.45-3.23-3.23v0C207.58,40.02,209.03,38.58,210.81,38.58z"/>
	<path id="Path_41" class="st3" d="M198.42,45.4h-28.54c-1.98,0-3.59-1.61-3.59-3.59s1.61-3.59,3.59-3.59l0,0h28.54
		c1.98,0,3.59,1.61,3.59,3.59S200.41,45.4,198.42,45.4L198.42,45.4z"/>
	<path id="Path_42" class="st0" d="M91.41,243.06H64.12c-4.96-0.01-8.97-4.02-8.98-8.98v-8.91c0.01-4.95,4.02-8.97,8.98-8.98h27.29
		c4.95,0.01,8.97,4.02,8.98,8.98v8.92C100.38,239.04,96.37,243.06,91.41,243.06z"/>
	<path id="Path_43" class="st2" d="M235.4,191.68H64.12c-4.96-0.01-8.97-4.02-8.98-8.98v-39.28c0.01-4.95,4.02-8.97,8.98-8.98H235.4
		c4.95,0.01,8.97,4.02,8.98,8.98v39.28C244.38,187.66,240.36,191.67,235.4,191.68z"/>
	<path id="Path_44" class="st0" d="M234.31,243.06h-27.29c-4.95-0.01-8.97-4.02-8.98-8.98v-8.91c0.01-4.95,4.02-8.97,8.98-8.98
		h27.29c4.95,0.01,8.97,4.02,8.98,8.98v8.92C243.28,239.04,239.27,243.06,234.31,243.06z"/>
	<path id="Path_45" class="st0" d="M162.16,243.06h-27.29c-4.96-0.01-8.97-4.02-8.98-8.98v-8.91c0.01-4.95,4.02-8.97,8.98-8.98
		h27.29c4.95,0.01,8.97,4.02,8.98,8.98v8.92C171.13,239.04,167.12,243.06,162.16,243.06z"/>
	<g id="Group_537" transform="translate(43.929 191.269)">
		<rect id="Rectangle_323" x="35.65" y="91.46" class="st0" width="21.54" height="20.11"/>
		<rect id="Rectangle_324" x="44.99" y="120.18" class="st0" width="12.21" height="20.11"/>
		<rect id="Rectangle_325" x="63.66" y="120.18" class="st0" width="21.54" height="20.11"/>
		<rect id="Rectangle_326" x="63.66" y="148.9" class="st0" width="21.54" height="20.11"/>
		<rect id="Rectangle_327" x="91.66" y="120.18" class="st0" width="21.54" height="20.11"/>
		<rect id="Rectangle_328" x="63.66" y="91.46" class="st0" width="21.54" height="20.11"/>
		<rect id="Rectangle_329" x="91.66" y="91.46" class="st0" width="21.54" height="20.11"/>
		<rect id="Rectangle_330" x="147.67" y="91.46" class="st0" width="21.54" height="20.11"/>
		<rect id="Rectangle_331" x="91.66" y="148.9" class="st0" width="21.54" height="20.11"/>
		<rect id="Rectangle_332" x="119.67" y="91.46" class="st0" width="21.54" height="20.11"/>
		<path id="Path_46" class="st0" d="M180.35,120.18h-14v20.11h14c1.98,0,3.59-1.61,3.59-3.59v0v-12.93
			C183.94,121.79,182.33,120.18,180.35,120.18z"/>
		<path id="Path_47" class="st0" d="M57.19,148.9h-4.31c-1.98,0-3.59,1.61-3.59,3.59l0,0v12.93c0,1.98,1.61,3.59,3.59,3.59
			c0,0,0,0,0,0h4.31L57.19,148.9z"/>
		<rect id="Rectangle_333" x="119.67" y="148.9" class="st0" width="21.54" height="20.11"/>
		<path id="Path_48" class="st0" d="M196.5,91.46h-20.82v20.11h20.82c1.98,0,3.59-1.61,3.59-3.59v0V95.05
			C200.09,93.06,198.49,91.46,196.5,91.46z"/>
		<path id="Path_49" class="st0" d="M159.88,149.21c-0.45-0.2-0.94-0.3-1.44-0.3h-10.77v20.11h10.77c0.49,0,0.98-0.1,1.44-0.3
			V149.21z"/>
		<rect id="Rectangle_334" x="119.67" y="120.18" class="st0" width="21.54" height="20.11"/>
		<rect id="Rectangle_335" x="147.67" y="120.18" class="st0" width="12.21" height="20.11"/>
		<path id="Path_50" class="st0" d="M38.52,120.18h-7.54c-1.98,0-3.59,1.61-3.59,3.59l0,0v12.93c0,1.98,1.61,3.59,3.59,3.59h0h7.54
			V120.18z"/>
		<path id="Path_51" class="st0" d="M29.19,91.46H14.83c-1.98,0-3.59,1.61-3.59,3.59l0,0v12.93c0,1.98,1.61,3.59,3.59,3.59h0h14.36
			V91.46z"/>
	</g>
	<g id="Group_542" transform="translate(130.27 25.726)">
		<g id="Group_538" transform="translate(6.718 222.173)">
			<path id="Path_52" class="st4" d="M74.73,142.94h-6.4l-3.04-24.68h9.44L74.73,142.94z"/>
			<path id="Path_53" class="st5" d="M74.96,149.61H55.28v-0.25c0-4.23,3.43-7.66,7.66-7.66h0l0,0l3.59-2.73l6.7,2.73h1.72V149.61z"
				/>
		</g>
		<g id="Group_539" transform="translate(33.752 222.173)">
			<path id="Path_54" class="st4" d="M87.52,142.94h-6.4l-3.04-24.68h9.44L87.52,142.94z"/>
			<path id="Path_55" class="st5" d="M87.75,149.61H68.08v-0.25c0-4.23,3.43-7.66,7.66-7.66h0l0,0l3.59-2.73l6.7,2.73h1.72
				L87.75,149.61z"/>
		</g>
		<path id="Path_56" class="st5" d="M134.2,176.14H79.25l-6.67,20.6l-1.61,87.62l0.28,68.37l12.51,0.05l11.02-73.49
			c0,0-1.23-7.23,0.93-6.22c2.16,1-1.49-7.87,1.05-7.02c2.54,0.85,5.01-33.46,5.01-33.46l6.06,51.78l3.89,68.37h11.29l9.47-105.46
			c0,0-2.97-6.38,0.95-10.62s3.52-39.25,3.52-39.25L134.2,176.14z"/>
		<path id="Path_57" class="st6" d="M135.65,174.84c0,0,5.27,7.5,0.67,19.26c-7.64,19.53-58.31,3.1-61.42-9.07
			c-4.77-1.65,3.18-4.05,0.84-8.04c-0.15-0.24,1.31,5.17,0.16-0.82c-1.85-9.62,1.33-39.16,1.33-39.16l1.05-17.53
			c1.02-16.98,7.92-33.08,19.53-45.52h26.39l11.45,18.59l1.19,46.59L135.65,174.84z"/>
		<g id="Group_540" transform="translate(0 43.994)">
			<path id="Path_58" class="st4" d="M55.22,132.62l8.18-12.4l7.14,4.13l-9.08,12.78c0.03,0.5-0.01,1.01-0.12,1.5
				c-0.42,2.55-2.84,4.27-5.39,3.85c-0.08-0.01-0.17-0.03-0.25-0.05c-2.61-0.81-4.13-3.51-3.48-6.16
				C52.55,134.62,53.67,133.25,55.22,132.62z"/>
			<path id="Path_59" class="st6" d="M93.94,33.93L93.94,33.93c-9.16,0-16.71,7.21-17.11,16.37l-1.75,39.44c0,0-0.01,2.19-0.82,1.54
				s-0.88,1.65-0.88,1.65s-0.04,3.51-0.8,1.5c-0.76-2.01-0.87,1.62-0.87,1.62L60.57,115.2c1.5,3.09,0.33,6.92-0.04,10.03l0,0l8,7.37
				c0,0-0.07-2.21,1.65-2.17c10.58,0.23,21.4-28.34,21.22-38.9C91.21,79.47,93.94,33.93,93.94,33.93z"/>
		</g>
		<g id="Group_541" transform="translate(28.836)">
			<path id="Path_60" class="st4" d="M68.87,23.05l8.18,12.4l7.14-4.13l-9.08-12.78c0.03-0.5-0.01-1.01-0.12-1.5
				c-0.42-2.55-2.84-4.27-5.39-3.85c-0.08,0.01-0.17,0.03-0.25,0.05c-2.61,0.81-4.13,3.51-3.48,6.16
				C66.2,21.04,67.32,22.41,68.87,23.05z"/>
			<path id="Path_61" class="st6" d="M107.59,121.74L107.59,121.74c-9.16,0-16.71-7.21-17.11-16.37l-1.75-39.44
				c0,0-0.01-2.19-0.82-1.54c-0.81,0.65-0.88-1.65-0.88-1.65s-0.04-3.51-0.8-1.5c-0.76,2.01-0.87-1.62-0.87-1.62L70.79,32.36
				l0.83-3.56l7.97-5.97c1.58,0.47,3.04,1.29,4.25,2.4c5.22,6.96,21.03,28.84,21.22,38.9c0.23,12.06,2.52,57.61,2.52,57.61
				L107.59,121.74z"/>
		</g>
		<path id="Path_62" class="st4" d="M104.12,69.95c0.39,0.09,0.78,0.17,1.17,0.23c1.19,0.2,2.4,0.26,3.61,0.19
			c9.39-0.5,16.6-8.53,16.09-17.92c-0.5-9.39-8.53-16.6-17.92-16.09c-7.41,0.4-13.71,5.55-15.57,12.73
			c-0.04,0.14-0.07,0.27-0.1,0.41C89.26,58.66,94.96,67.82,104.12,69.95z"/>
		<path id="Path_63" class="st5" d="M125.46,58.95c-2.38,6.27-8.4,11.25-15.1,11.54c-1.15,0.1-2.3-0.1-3.34-0.59
			c-1.06-0.51-1.72-1.59-1.71-2.76c0.18-2.25,3.24-3.11,4.1-5.2c0.63-1.53-0.09-3.28-1.62-3.91c-1.38-0.57-2.97-0.04-3.72,1.25
			c1.21-2.32,0.73-5.16-1.18-6.94c-1.9-1.7-4.15-2.95-6.59-3.66l-0.05-0.9c-1.8,0.43-3.64-0.57-4.24-2.33
			c0.8-1.07,1.44-2.25,1.9-3.5c-0.7,0.49-1.47,0.85-2.3,1.07c0.05-1.46-2.14-2.16-1.77-3.59c0.52-1.99,3.51-4.97,2.53-6.78
			c1.88,0.61,2.97,2.57,2.5,4.49c0.66-1.79,1.31-3.59,1.97-5.38c0.51,1.25,1.02,2.49,1.54,3.74c2.41-1.72,5.12-2.96,8-3.64
			c2.95-0.66,6.02,0.43,7.88,2.81c1.8-0.94,3.97-0.8,5.64,0.36c1.62,1.16,2.92,2.71,3.78,4.51
			C127.02,45.45,127.66,52.51,125.46,58.95L125.46,58.95z"/>
	</g>
</g>
</svg>
