<?xml version="1.0" encoding="utf-8"?>
<!-- Generator: Adobe Illustrator 26.5.3, SVG Export Plug-In . SVG Version: 6.00 Build 0)  -->
<svg version="1.1" id="Lag_1" xmlns="http://www.w3.org/2000/svg" xmlns:xlink="http://www.w3.org/1999/xlink" x="0px" y="0px"
	 viewBox="0 0 150 150" style="enable-background:new 0 0 150 150;" xml:space="preserve">
<style type="text/css">
	.st0{fill:#E4F1F0;}
	.st1{fill:#FFFFFF;}
	.st2{fill:#2F2E41;}
	.st3{fill:#9E616A;}
	.st4{fill:#FFB8B8;}
	.st5{fill:#00454E;}
	.st6{fill:#CCCCCC;}
	.st7{fill:#FFB6B6;}
	.st8{fill:#CACACA;}
	.st9{fill:#3F3D56;}
	.st10{fill:#00796B;}
	.st11{fill:#A0616A;}
	.st12{opacity:0.2;enable-background:new    ;}
</style>
<g id="Group_548" transform="translate(0 0)">
	<path id="Path_64" class="st0" d="M150.2,75.1c0.01,8.55-1.44,17.04-4.3,25.1c-0.01,0.04-0.02,0.07-0.04,0.11l0,0
		c-2.14,6-5.03,11.7-8.62,16.96c-0.62,0.92-1.26,1.82-1.93,2.71c-0.73,0.98-1.49,1.94-2.26,2.88c-0.72,0.87-1.45,1.72-2.21,2.56
		c-0.9,1-1.82,1.97-2.77,2.91c-2.24,2.23-4.61,4.31-7.11,6.24c-0.44,0.34-0.88,0.68-1.33,1c-1.04,0.77-2.11,1.51-3.19,2.23
		c-2.39,1.58-4.86,3.02-7.42,4.31c-0.44,0.22-0.88,0.45-1.33,0.66c-1.72,0.83-3.49,1.6-5.28,2.3c-0.51,0.2-1.03,0.4-1.55,0.58
		c-0.09,0.03-0.17,0.07-0.26,0.1c-6.16,2.22-12.58,3.62-19.1,4.17c-0.45,0.04-0.91,0.08-1.36,0.1c-0.48,0.03-0.96,0.06-1.45,0.08
		c-0.38,0.02-0.76,0.03-1.15,0.04c-0.08,0-0.16,0.01-0.23,0.01c-0.52,0.02-1.03,0.03-1.55,0.03c-0.22,0-0.44,0-0.66,0
		c-0.1,0-0.21,0-0.31,0c-1.5-0.01-2.98-0.05-4.46-0.15c-0.03,0-0.06,0-0.09,0c-0.53-0.04-1.05-0.07-1.58-0.12
		c-1.86-0.16-3.71-0.38-5.54-0.68c-0.42-0.07-0.84-0.14-1.26-0.21c-1.82-0.32-3.61-0.71-5.38-1.17c-0.53-0.13-1.05-0.27-1.57-0.42
		c-7.23-2.02-14.12-5.11-20.43-9.18c-1.09-0.7-2.15-1.42-3.19-2.18c-0.13-0.09-0.26-0.18-0.38-0.28c-2.54-1.85-4.95-3.86-7.24-6.01
		c-1.08-1.02-2.13-2.07-3.15-3.15C-7.97,96.52-6.62,48.99,23.53,20.51s77.68-27.13,106.16,3.02C142.86,37.47,150.2,55.92,150.2,75.1
		L150.2,75.1z"/>
	<path id="Path_65" class="st1" d="M84.26,19.14c1.5-2.49,3.29-5.14,6.08-5.95c3.23-0.94,6.55,0.93,9.37,2.77
		c8.42,5.51,16.53,11.49,24.29,17.9l-0.01,0.1l-18.13-1.25c-4.37-0.3-8.88-0.64-12.74-2.71c-1.46-0.78-2.89-1.83-4.55-1.9
		c-2.06-0.09-3.86,1.35-5.27,2.85c-8.35,8.9-10.77,22.5-20.14,30.31C69.07,46.68,76.12,32.6,84.26,19.14L84.26,19.14z"/>
	<path id="Path_66" class="st1" d="M32.91,94.59c0.92-1.17,1.3-1.44,2.21-2.62c7.42-9.6,14.39-19.52,20.92-29.76
		c4.43-6.96,8.65-14.05,12.64-21.27c1.9-3.43,3.75-6.9,5.55-10.39c1.4-2.71,2.76-5.42,4.09-8.16c0.38-0.78,0.75-1.57,1.12-2.35
		c0.87-1.85,1.72-3.71,2.64-5.54c0.95-2.19,2.39-4.13,4.23-5.66c0.87-0.66,1.91-1.06,3-1.16c1.54,0.01,3.04,0.44,4.35,1.25
		c9.9,5.2,19.14,11.58,27.52,18.98c8.4,7.37,15.9,15.71,22.36,24.82c0.2,0.28,0.67,0.01,0.47-0.27c-0.79-1.11-1.59-2.21-2.4-3.3
		C131.45,35.66,119,24.04,104.82,14.85c-2.39-1.55-4.82-3.02-7.29-4.42c-1.25-0.71-2.5-1.4-3.77-2.06c-1.22-0.72-2.59-1.14-4-1.24
		c-4.86-0.08-7.37,5.42-9.1,9.13c-0.54,1.17-1.09,2.33-1.65,3.48c-2.1,4.39-4.28,8.75-6.55,13.06c-1.4,2.66-2.83,5.31-4.28,7.94
		c-4.54,8.2-9.36,16.23-14.46,24.09c-6.76,10.42-13.48,19.62-21.18,29.37C32.32,94.48,32.69,94.86,32.91,94.59z"/>
	<path id="Path_67" class="st1" d="M59.79,50.86l-7.24-2.65l-3.59-1.31c-1.16-0.47-2.34-0.87-3.55-1.22
		c-1.05-0.3-2.17-0.29-3.21,0.04c-0.93,0.34-1.78,0.87-2.5,1.55c-0.74,0.68-1.42,1.41-2.05,2.19c-0.78,0.94-1.55,1.89-2.33,2.84
		c-3.19,3.91-6.37,7.83-9.52,11.77c-3.15,3.94-6.28,7.9-9.4,11.87c-3.12,3.98-6.21,7.99-9.29,12l-1.13,1.48
		c-0.21,0.27-0.68,0-0.47-0.27c3.1-4.06,6.22-8.1,9.36-12.12c3.14-4.02,6.31-8.04,9.51-12.05c3.19-4,6.41-7.98,9.64-11.95
		c0.81-0.99,1.61-1.97,2.42-2.96c0.68-0.83,1.36-1.67,2.1-2.45c1.29-1.55,3.14-2.53,5.14-2.71c1.2,0.04,2.39,0.3,3.5,0.77
		c1.21,0.44,2.42,0.88,3.62,1.33l7.29,2.67l1.82,0.67C60.25,50.46,60.11,50.98,59.79,50.86L59.79,50.86z"/>
	<path id="Path_68" class="st1" d="M39.97,50.88c0.63-0.93,1.52-1.67,2.55-2.13l0.99,0.04c-7.57,13.38-17.8,25.07-30.05,34.35
		L39.97,50.88z"/>
	<path id="Path_69" class="st2" d="M88.34,37.03c0,4.61-3.74,8.35-8.35,8.35c-4.61,0-8.35-3.74-8.35-8.35c0-2.16,0.84-4.24,2.34-5.8
		l0.04-0.04c0.07-0.07,0.13-0.14,0.2-0.21l0,0l0,0c0.09-0.08,0.17-0.16,0.26-0.23c3.47-3.04,8.74-2.69,11.78,0.77
		C87.6,33.05,88.34,35.01,88.34,37.03L88.34,37.03z"/>
	<circle id="Ellipse_6" class="st3" cx="77.93" cy="38.96" r="7"/>
	<path id="Path_70" class="st2" d="M82.93,32.23c-2.21-2.07-5.42-2.69-8.25-1.6c-0.04,0.02-0.08,0.03-0.12,0.05l0,0
		c-0.13,0.05-0.27,0.12-0.4,0.17l-0.08,0.04v0.01l-0.05,0.03c-0.03,0.03-0.07,0.05-0.12,0.06c-1.23-0.03-2.41,0.46-3.26,1.36
		c-1.19,1.52-1.7,3.45-1.44,5.36v0.07l0.06,0.04c0.57,0.36,1.12,0.67,1.64,0.95c0.31,0.17,0.61,0.32,0.91,0.46l0.11,0.05
		c2.61,1.37,5.66,1.64,8.47,0.77l0.05-0.02l1.13-1.9c0.24,1.33,1.28,2.37,2.6,2.61l0.47,0.08l0.69,0.12l0.03-0.13
		C86.07,37.73,85.14,34.5,82.93,32.23z"/>
	<path id="Path_71" class="st2" d="M100.14,46.93c-2.38-1.23,0.68-5.69,0.07-8.3c-0.62-2.61-5.05-3.45-5.33-6.12
		c-0.13-2.7-1.07-5.29-2.71-7.44c-1.08-1.37-2.75-2.14-4.49-2.09c-2.22,0.21-3.85,2.18-3.64,4.4c0.02,0.2,0.05,0.39,0.1,0.58
		c-0.44-0.52-1.23-0.59-1.75-0.14c-0.13,0.11-0.23,0.24-0.31,0.39c-0.19,0.67,0.19,1.37,0.86,1.56c0.06,0.02,0.13,0.03,0.19,0.04
		c0.81,1.27,2.05,2.21,3.5,2.63c0.48,0.11,0.98-0.01,1.36-0.31c0.34-0.31,0.36-0.83,0.05-1.17c-0.03-0.03-0.06-0.06-0.09-0.08
		c1.82,0.9,3.04,2.69,3.21,4.71c0.14,1.99,0.02,3.99-0.36,5.95c-0.38,1.97-0.23,4,0.42,5.89c1,2.18,2.98,3.75,5.33,4.22
		c2.34,0.44,4.75,0.06,6.84-1.09c2.07-1.15,3.86-2.74,5.24-4.65C106.2,47.78,102.94,48.17,100.14,46.93z"/>
	<path id="Path_72" class="st4" d="M73.06,76.34l-4.84,33.03l26.41-1.99l-7.9-32.5L73.06,76.34z"/>
	<path id="Path_73" class="st2" d="M100.69,145.42c-0.02,0.11-0.05,0.23-0.09,0.34c-3.05,1.1-6.16,2-9.33,2.7
		c-0.67-2.19-1.95-6.35-3.07-9.75c-0.52-1.83-1.19-3.61-2-5.33c-0.78-0.78,0-1.82,0-1.82l-3.34-10.4l-1.52-4.72l-0.52,9.92
		l-0.76,14.37l-0.02,0.4c0,0-1.04,3.12-0.52,3.64c0.52,0.52-0.52,2.6-0.52,2.6l-0.3,2.73c-0.38,0.02-0.76,0.03-1.15,0.04l-0.13,0.04
		l-0.11-0.03c-0.52,0.02-1.03,0.03-1.55,0.03c-0.22,0-0.44,0-0.66,0c-0.1,0-0.21,0-0.31,0c-1.5-0.01-2.98-0.05-4.46-0.15l-0.91-7.45
		l-0.95-7.69c0,0,1.04-2.08,0-3.12c-0.48-0.65-0.46-1.53,0.04-2.16c-0.22-0.96-0.52-2.45-0.92-4.65c-0.01-0.07-0.03-0.15-0.04-0.22
		c-0.13-0.7-0.24-1.38-0.34-2.05c-0.18-1.18-0.32-2.31-0.42-3.4c-0.36-3.51-0.41-7.05-0.15-10.57c0.1-1.25,0.22-2.17,0.31-2.7
		c0.01-0.05,0.08-0.33,0.21-0.77c0.2-0.71,0.52-1.83,0.88-3.09c0.19-0.67,0.4-1.37,0.6-2.07c0.35-1.21,0.7-2.42,0.98-3.39l0,0
		c0.25-0.85,0.45-1.53,0.55-1.88c0.05-0.17,0.08-0.27,0.08-0.27l0.16-0.04c0.33-0.07,1.13-0.26,2.25-0.5
		c1.17-0.25,2.67-0.56,4.31-0.88c1.41-0.27,2.93-0.55,4.44-0.8c0.54-0.09,1.09-0.17,1.62-0.25c2.56-0.51,5.18-0.67,7.78-0.45
		c0.1,0.02,0.2,0.05,0.29,0.08c0.1,0.03,0.19,0.08,0.28,0.13c0.04,0.03,0.48,1.71,1.03,3.91l0.02,0.07c0.17,0.66,0.34,1.37,0.52,2.1
		c0.18,0.73,0.37,1.49,0.55,2.21c0.54,2.17,1.04,4.18,1.3,5.17c0.1,0.38,0.16,0.61,0.18,0.63c0.83,2.09,1.34,4.3,1.5,6.55
		c0.36,2.76,0.64,6.01,0.86,9.17c0.11,1.56,0.2,3.11,0.28,4.56c0.27,4.87,0.37,8.68,0.37,8.68c0.19,1.6,0.59,3.17,1.19,4.67
		c0.1,0.19,0.22,0.37,0.37,0.53c0.39,0.31,0.59,0.81,0.52,1.31c-0.03,0.15-0.09,0.3-0.19,0.42c-0.02,0.03-0.04,0.06-0.07,0.09
		c-0.14,0.66,0.06,1.34,0.52,1.82C100.71,144.21,100.85,144.83,100.69,145.42z"/>
	<path id="Path_74" class="st5" d="M92.04,65.75c-0.03-0.22-0.06-0.45-0.1-0.68c-0.02-0.15-0.04-0.29-0.06-0.44
		c-0.23-1.46,0.72-2.71-0.5-3.72c-0.29-0.23-0.52-0.53-0.68-0.86l-0.28-0.56l-0.52-1.05l-1.13-2.27l-0.19-0.39
		c-0.05-0.11-0.12-0.22-0.19-0.32c-0.21-0.31-0.48-0.56-0.8-0.75l-2.8-1.67c-0.43-0.26-0.78-0.63-1-1.09l-0.07-0.14
		c-0.37-1-0.88-1.94-1.52-2.81l0,0c-0.14-0.16-0.34-0.27-0.55-0.31l-2.79-0.28c-0.91-0.09-1.8,0.3-2.34,1.03l-0.08,0.35L76,51.84
		h-0.02c-0.13,0.03-0.26,0.06-0.39,0.1c-2.89,0.79-4.1,10.9-4.1,10.9s-2.02,3.34-1.23,5.41l1.42,3.33c0.01,0.03,0.02,0.05,0.02,0.08
		c0.13,0.36,0.17,0.75,0.13,1.13v0.13v0.29l0.01,0.74l0.03,2.45l0.04,3.06l0.04,2.61l0.01,0.7l-2.34,10.18
		c-0.08,0.68,0.12,1.35,0.54,1.89l0,0c0.05,0.07,0.11,0.13,0.16,0.19l0,0c0.05,0.06,0.12,0.11,0.17,0.16
		c0.57,0.5,1.33,0.72,2.08,0.6l0.31-0.05l0,0l4.53-0.68l0,0l0.52-0.08l0,0l5.07-0.76l0,0l0.87-0.13c0.07-0.01,0.14-0.02,0.21-0.02
		l4.64-0.32c0.11-0.01,0.21-0.02,0.32-0.04l0,0c0.83-0.16,1.52-0.72,1.86-1.49c0.07-0.15,0.12-0.31,0.16-0.48
		c0.04-0.18,0.06-0.36,0.07-0.54l0.05-4.37l0.18-14.14c0-0.47,0.14-0.93,0.39-1.33C92.42,70.31,92.35,68.11,92.04,65.75z"/>
	<path id="Path_75" class="st3" d="M84.25,103.5c-0.25-1.36,0.66-2.67,2.02-2.91c0.15-0.03,0.29-0.04,0.44-0.04l2.9-8.42l2.83,3.67
		l-3.18,7.44c-0.09,1.39-1.29,2.44-2.68,2.35C85.41,105.5,84.45,104.65,84.25,103.5L84.25,103.5z"/>
	<path id="Path_76" class="st5" d="M95.3,85.79l-0.65,1.64l-0.91,10.15c-0.28,0.07-0.55,0.18-0.8,0.34
		c-1.11,0.69-1.6,2.05-1.19,3.29l0.27,0.8l-1.99-0.61l-3.27-1l-3.86-1.18l0.65-2.12c0.31-0.99,0.11-2.06-0.53-2.88
		c-0.08-0.1-0.16-0.19-0.25-0.28l0.24-1.83l0.14-1.09l-1.76,1.34l-3.45,2.62l0,0l-0.46,0.35c0,0-0.02-0.09-0.07-0.27
		c-0.09-0.34-0.25-0.99-0.47-1.9c-1.04-4.53-1.81-9.13-2.3-13.75c-0.11-1.04-0.2-2.11-0.28-3.19c-0.08-1.12-0.13-2.25-0.16-3.38
		c-0.26-9.26,1.17-18.97,7.12-23.94c0.29,0,0.57,0.05,0.85,0.14c2.41,0.74,5.05,4.36,6.88,6.95c0.43,0.61,0.82,1.17,1.14,1.61
		l0.79,1.08c1.08,1.47,1.83,3.16,2.19,4.94c0.08,0.38,0.14,0.76,0.18,1.15l0.86,7.94v2.05L95.3,85.79z"/>
	<path id="Path_77" class="st6" d="M4.35,100.02c1.55,1.84,3.22,3.56,5.01,5.16l131.57,0.18c1.79-1.6,3.46-3.33,5.01-5.16
		L4.35,100.02z"/>
	<path id="Path_78" class="st7" d="M75.76,150.19c-0.22,0-0.44,0-0.66,0c-0.1,0-0.21,0-0.31,0c-1.5-0.01-2.98-0.05-4.46-0.15
		l0.04,0.29l-0.13-0.3l-2.83-6.58l2-0.86l3.67-1.58l1.12,3.83l1.07,3.67l0.32,1.09L75.76,150.19z"/>
	<path id="Path_79" class="st7" d="M62.66,142.55l-0.8,6.48c-1.82-0.32-3.61-0.71-5.38-1.17v-5.32L62.66,142.55z"/>
	<path id="Path_80" class="st8" d="M34.48,130.61v7.67c-1.09-0.7-2.15-1.42-3.19-2.18v-5.49H34.48z"/>
	<path id="Path_81" class="st9" d="M46.85,129.33v3.83c0,1.47-1.19,2.66-2.66,2.66H30.9c-2.54-1.85-4.95-3.86-7.24-6.01
		c-1.08-1.02-2.13-2.07-3.15-3.15h23.68C45.65,126.67,46.84,127.86,46.85,129.33z"/>
	<path id="Path_82" class="st2" d="M77.98,150.02l-0.44,0.14l-0.13,0.04l-0.11-0.03c-0.52,0.02-1.03,0.03-1.55,0.03
		c-0.22,0-0.44,0-0.66,0c-0.1,0-0.21,0-0.31,0c-1.5-0.01-2.98-0.05-4.46-0.15l0.04,0.29l-0.13-0.3c-0.53-0.04-1.05-0.07-1.58-0.12
		l-4.15-6.95l-8.54-14.3l-0.99-1.66c0,0-3.38,1-8.16,1.96c-4.07,0.84-8.2,1.39-12.35,1.65c-1.07,0.06-2.14,0.09-3.19,0.08
		c-2.57,0.02-5.13-0.27-7.62-0.88c-1.08-1.02-2.13-2.07-3.15-3.15c-1.74-1.84-3.38-3.76-4.93-5.77c-0.02-0.74,0.02-1.47,0.12-2.2
		c0.02-0.12,0.03-0.24,0.05-0.37l0.49-8.27l3.61-0.48l5.5-0.73l5.96-0.79l0.66,5.14c0,0,4.64-0.23,10.53-0.16
		c9.45,0.13,22.09,1.07,23.81,5.11c0.16,0.38,0.32,0.76,0.48,1.15c3.33,7.96,6.38,16.45,8.45,22.48c0.4,1.15,0.75,2.21,1.07,3.16
		C77.37,148.08,77.98,150.02,77.98,150.02z"/>
	<path id="Path_83" class="st2" d="M67.87,122.72c-0.09,0.76-0.18,1.51-0.28,2.26c-0.86,6.64-2.03,12.98-3.08,17.99
		c-0.51,2.45-0.99,4.58-1.39,6.27c-0.42-0.07-0.84-0.14-1.26-0.21c-1.82-0.32-3.61-0.71-5.38-1.17c-0.53-0.13-1.05-0.27-1.57-0.42
		l1.06-18.78l0.35-6.21l10.89,0.25L67.87,122.72z"/>
	<path id="Path_84" class="st7" d="M85.38,93.67c1.72-0.96,3.88-0.34,4.84,1.37c0.1,0.18,0.19,0.37,0.26,0.57l12.65,0.02l-3.62,5.48
		l-11.46-0.85c-1.91,0.52-3.87-0.6-4.4-2.5C83.22,96.15,83.93,94.46,85.38,93.67L85.38,93.67z"/>
	<path id="Path_85" class="st10" d="M92.28,101.08l22.78,2.26l0.06-0.08c0.12-0.15,11.52-14.74,13.43-18.22
		c1.18-2.09,1.61-4.51,1.22-6.88l-0.01-0.06l-0.05-0.04c-1.91-1.6-4.68-1.66-6.67-0.15c-4.63,3.58-8.36,8.19-10.9,13.47l-1.44,3
		l-16.72,0.72L92.28,101.08z"/>
	<path id="Path_86" class="st7" d="M83.49,142.21l-3.36,7.82c-0.48,0.03-0.96,0.06-1.45,0.08c-0.38,0.02-0.76,0.03-1.15,0.04
		l-0.13,0.04l-0.11-0.03c-0.52,0.02-1.03,0.03-1.55,0.03c-0.22,0-0.44,0-0.66,0c-0.1,0-0.21,0-0.31,0l0.22-0.76l0.26-0.9l1.04-3.58
		l1.5-5.17l2.24,0.96L83.49,142.21z"/>
	<path id="Path_87" class="st7" d="M107.68,142.77c-1.72,0.83-3.49,1.6-5.28,2.3l-1.76-2.95l5.66-2.48L107.68,142.77z"/>
	<path id="Path_88" class="st8" d="M119.62,129.36v6.22c-1.04,0.77-2.11,1.51-3.19,2.23v-8.45H119.62z"/>
	<path id="Path_89" class="st9" d="M130.84,125.42c-0.9,1-1.82,1.97-2.77,2.91c-2.24,2.23-4.61,4.31-7.11,6.24h-14.24
		c-0.76,0-1.49-0.33-2-0.9l0,0c-0.3-0.33-0.5-0.74-0.6-1.18l0,0c-0.04-0.19-0.06-0.38-0.06-0.57v-3.83c0-1.47,1.19-2.66,2.66-2.66
		L130.84,125.42z"/>
	<path id="Path_90" class="st2" d="M136.71,110.47l-1.54,6.61c0.15,0.96,0.2,1.93,0.15,2.9c-0.73,0.98-1.49,1.94-2.26,2.88
		c-0.72,0.87-1.45,1.72-2.21,2.56c-0.9,1-1.82,1.97-2.77,2.91c-2.75,0.78-5.59,1.16-8.44,1.12c-1.05,0.01-2.12-0.02-3.19-0.08
		c-4.15-0.26-8.27-0.81-12.35-1.65c-0.95-0.19-1.85-0.38-2.67-0.57c-1.56-0.35-2.87-0.68-3.81-0.93c-1.07-0.28-1.67-0.46-1.67-0.46
		l-4.05,6.78l-3.68,6.16l-6.7,11.22c-0.45,0.04-0.91,0.08-1.36,0.1c-0.48,0.03-0.96,0.06-1.45,0.08c-0.38,0.02-0.76,0.03-1.15,0.04
		l-0.13,0.04l-0.11-0.03l-1.72-0.55l-0.58-0.18l-2.08-0.66c0,0,0.47-1.47,1.28-3.91c0.3-0.9,0.65-1.93,1.03-3.07
		c1.4-4.11,3.35-9.64,5.57-15.43c0.66-1.72,1.34-3.46,2.04-5.2c0.57-1.43,1.16-2.84,1.75-4.25c1.03-2.43,6-3.74,11.86-4.43
		c0.3-0.03,0.6-0.07,0.9-0.1c2.98-0.31,6.15-0.48,9.11-0.55c1.48-0.04,2.91-0.05,4.24-0.05c0.43,0,0.85,0,1.25,0l0,0
		c1.1,0,2.11,0.02,3,0.04l0.5,0.01l0,0l0.33,0.01c1.94,0.05,3.13,0.11,3.13,0.11l0.47-3.62l0.09-0.73l0.09-0.7l0,0l0.01-0.09h0.07
		l1.28-0.02l10.8-0.21l5.9-0.12L136.71,110.47z"/>
	<path id="Path_91" class="st2" d="M109.02,142.12c-0.44,0.22-0.88,0.45-1.33,0.66c-1.72,0.83-3.49,1.6-5.28,2.3
		c-0.51,0.2-1.03,0.4-1.55,0.58c-0.06-0.08-0.12-0.16-0.17-0.24c-2.48-3.4-5.62-7.88-8.81-12.87c-1.33-2.09-2.67-4.26-3.97-6.49
		l9.42-4.39l1.06-0.49l3.04,5.98l2.71,5.33l0.6,1.19L109.02,142.12z"/>
	<circle id="Ellipse_7" class="st7" cx="122.68" cy="59.12" r="8.67"/>
	<path id="Path_92" class="st2" d="M122.39,67.41c2.11,0.9,4.52,0.71,6.46-0.5c1.91-1.22,3.42-2.97,4.36-5.03
		c0.84-1.44,1.14-3.12,0.84-4.76c-0.38-1.67-2-2.75-3.69-2.45c1-1.03,1.04-2.67,0.08-3.75c-0.97-1.01-2.22-1.7-3.58-1.99
		c-1.91-0.65-3.95-0.88-5.96-0.68c-2.04,0.22-3.85,1.39-4.89,3.15c-1.34,0.35-2.74-0.26-3.41-1.47c-0.45,1.16-0.06,2.48,0.95,3.21
		l-2.7-1.46c-0.56,1.05-0.16,2.35,0.89,2.9c0.03,0.02,0.06,0.03,0.09,0.05c1.1,0.45,2.32,0.49,3.45,0.11
		c1.14-0.29-0.21,2.12,0.97,2.14c1.21-0.05,2.32,0.65,2.79,1.77c0.1,0.61,0.15,1.22,0.13,1.84c-0.01,0.63,0.36,1.21,0.94,1.46
		c0.38,0.1,0.79-0.03,1.17,0.08c0.46,0.18,0.77,0.62,0.78,1.11c0.01,0.48-0.08,0.97-0.26,1.41c-0.59,1.81,1.3,0.8,0.71,2.61
		L122.39,67.41z"/>
	<path id="Path_93" class="st10" d="M139.41,93.04c-0.07-7.16-0.4-12.05-0.96-14.51c-1.52-6.63-8.56-7.84-9.66-7.99
		c-0.47-1.26-1.87-1.9-3.13-1.42c-0.05,0.02-0.11,0.04-0.16,0.07l-5,2.29c-2.05,0.94-3.62,2.69-4.33,4.83l-0.74,2.27l-0.37,15.2
		l1.23,6.39l0,0l0.83,4.31l-0.57,0.86l-3.26,4.89l-0.05,0.09l0,0l-0.14,0.21l0.58,0.32c0.5,0.28,0.99,0.54,1.46,0.81l0.34,0.19l0,0
		l0.21,0.12c1.78,1,3.4,1.92,4.86,2.77l0.6,0.35c4.15,2.3,8.13,4.9,11.9,7.79c0.78-0.94,1.53-1.9,2.26-2.88
		c0.66-0.89,1.31-1.79,1.93-2.71c0.11-0.72,0.18-1.43,0.25-2.14c0.09-0.85,0.17-1.72,0.33-2.58c0-0.41-0.15-0.8-0.43-1.09
		c-0.24-0.25-0.38-0.58-0.4-0.92c0.14-0.37,0.39-0.69,0.7-0.94c0.35-0.28,0.62-0.65,0.76-1.08c0.14-1.05,0.27-2.1,0.38-3.16
		c0.18-1.72,0.32-3.44,0.42-5.17C139.38,97.8,139.44,95.42,139.41,93.04z"/>
	<path id="Path_94" class="st7" d="M106.4,118.32c0.56-1.89,2.53-2.96,4.42-2.41c0.2,0.06,0.4,0.14,0.58,0.23l9.05-8.84l1.25,6.45
		l-8.78,7.4c-1,1.71-3.19,2.28-4.89,1.29C106.58,121.62,105.91,119.91,106.4,118.32L106.4,118.32z"/>
	<path id="Path_95" class="st10" d="M116.51,118.8l17.86-14.32l-0.01-0.1c-0.02-0.19-2.09-18.59-3.15-22.41
		c-0.62-2.32-2.01-4.35-3.95-5.77l-0.05-0.03h-0.06c-2.49,0.19-4.51,2.09-4.86,4.56c-0.8,5.8-0.24,11.7,1.63,17.25l1.07,3.15
		l-11.44,12.21L116.51,118.8z"/>
	<circle id="Ellipse_8" class="st11" cx="25.06" cy="59.9" r="7.74"/>
	<path id="Path_96" class="st10" d="M14.66,118.85l-0.04-0.06c-2.26-3.16,1.14-10.74,1.65-11.84l0,0c-1.25-0.41-2.04-1.64-1.89-2.95
		l0.22-1.87l0.23-1.84l-1.65-1.65V98.6l-0.95-8.29l-1.38-5.51c-1.06-4.24,0.26-8.72,3.43-11.72l3.18-0.51l3.87-3.73h6.24l2.14,2.04
		c4.21,3.45,5.21,1.95,9.95,8.44l-3.4,8.95l1.9,13.2v2.39l0.99,1.1c0.72,0.8,1.03,1.9,0.82,2.96l-0.13,0.65l0,0
		c1.02,0.44,1.76,1.34,2,2.43l0.35,1.62c0.3,0.39,2.26,3.01,2.26,3.72c0,0.11-0.08,0.21-0.25,0.33c-1.34,0.91-8.72,2.75-11.99,1.44
		c-3.48-1.39-17.33,0.7-17.47,0.72L14.66,118.85z"/>
	<path id="Path_97" class="st11" d="M10.73,87.45l6.44-1.26c2.38,3.55,3.66,13.27,3.66,13.27l7.12,14.76
		c1.37,0.83,1.8,2.61,0.97,3.98c-0.83,1.37-2.61,1.8-3.98,0.97c-0.91-0.55-1.44-1.56-1.39-2.62l-9.28-17.48L10.73,87.45z"/>
	<path id="Path_98" class="st10" d="M10.7,88.98l-0.18-9.56l3.03-4.05c1.22-1.62,3.25-2.41,5.24-2.03l0,0
		c2.74,0.54,4.6,3.1,4.25,5.88c-0.51,4.05-1.68,9.12-4.32,10.27l-0.03,0.01l2.74,9.57l-10.15,1.42L10.7,88.98z"/>
	<path id="Path_99" class="st11" d="M48.92,88.13c0,0-7.72-6.04-11.91-6.9l-3.71,5.41l10.02,6.14l19.52,5.64
		c1.07,1.19,2.9,1.28,4.09,0.21c1.19-1.07,1.28-2.9,0.21-4.09c-0.71-0.78-1.78-1.12-2.81-0.88L48.92,88.13z"/>
	<path id="Path_100" class="st10" d="M35.33,89.35l-8.05-5.17L25.6,79.4c-0.66-1.91-0.19-4.03,1.23-5.48l0,0
		c1.97-1.98,5.14-2.09,7.25-0.26c3.08,2.68,7.05,3.58,6.53,6.41l1.48,0.22l7.58,5.76l-4.47,9.22L35.33,89.35z"/>
	<path id="Path_101" class="st2" d="M16.29,54.81c0.86-1.39,2.45-2.17,4.08-1.99c0.44-3.05,3.27-5.15,6.32-4.71
		c1.13,0.17,2.19,0.67,3.02,1.46c0.5-0.35,1.14-0.41,1.69-0.17c0.54,0.25,1.02,0.63,1.38,1.1c1.85,2.3,2.28,5.44,1.12,8.16
		c0.19-0.7-0.51-1.36-1.22-1.52s-1.46-0.01-2.18-0.12c-0.92-0.13-1.76-0.67-2.68-0.79c-0.79-0.05-1.57,0.05-2.32,0.3
		c-0.75,0.25-1.53,0.35-2.32,0.31c-0.78-0.09-1.78,2.86-1.77,4.94c0,0.39-0.08,0.9-0.47,0.98c-0.47,0.1-0.75-0.55-1.2-0.73
		c-0.43-0.12-0.89,0.12-1.02,0.55c-0.12,0.42-0.02,0.88,0.26,1.22c0.28,0.33,0.61,0.62,0.98,0.85l-0.19,0.15
		c-0.36,0.39-0.95,0.46-1.4,0.17c-0.43-0.29-0.77-0.68-1-1.14c-0.87-1.35-1.49-2.84-1.84-4.41C15.19,57.86,15.46,56.2,16.29,54.81z"
		/>
	<path id="Path_102" class="st12" d="M84.25,67.82c0.79,3.27,1.15,6.63,1.08,9.99c-0.07,3.36-0.56,6.7-1.46,9.94
		c-0.51,1.83-1.16,3.62-1.93,5.36c-0.14,0.31,0.32,0.58,0.47,0.27c1.39-3.13,2.38-6.42,2.93-9.8c0.56-3.38,0.68-6.82,0.37-10.23
		c-0.17-1.91-0.48-3.81-0.93-5.68C84.69,67.34,84.17,67.48,84.25,67.82z"/>
	<path id="Path_103" class="st12" d="M134.22,90.7l-4.47,10.92c-0.72,1.76-1.42,3.53-2.17,5.27c-0.62,1.61-1.49,3.11-2.58,4.45
		c-1.12,1.38-2.7,2.29-4.45,2.58c-0.34,0.04-0.34,0.58,0,0.53c1.6-0.22,3.07-0.96,4.22-2.1c1.22-1.23,2.19-2.69,2.87-4.28
		c0.81-1.75,1.49-3.54,2.22-5.32l2.29-5.58l2.59-6.32C134.86,90.53,134.35,90.39,134.22,90.7z"/>
	<path id="Path_104" class="st2" d="M81.19,100.62c0.16,0.47,0.61,0.78,1.1,0.77l4.73-0.12c0.5-0.01,0.93-0.35,1.07-0.83l0.67-7.15
		c0.24,0.11,0.5,0.16,0.76,0.15c0.95-0.02,1.71-0.8,1.69-1.75c-0.02-0.95-0.8-1.71-1.75-1.69c-0.01,0-0.02,0-0.03,0
		c-0.1,0-0.21,0.01-0.31,0.03c-0.22-0.24-0.54-0.38-0.87-0.38l-7.27,0.19c-0.06,0-0.12,0.01-0.18,0.02
		c-0.62,0.11-1.02,0.71-0.91,1.32c0.01,0.05,0.02,0.1,0.04,0.15L81.19,100.62z M88.89,92.8l0.48-1.7c0.05-0.2,0.05-0.4,0-0.6
		c0.02,0,0.04-0.01,0.07-0.01c0.68,0,1.23,0.55,1.24,1.23c0,0.66-0.52,1.21-1.18,1.24C89.28,92.95,89.08,92.9,88.89,92.8L88.89,92.8
		z"/>
	<path id="Path_105" class="st9" d="M80.8,89.86c0.15,0.89,1.9,1.51,3.99,1.4c1.93-0.09,3.5-0.76,3.79-1.57
		c-0.11-0.03-0.22-0.05-0.33-0.04l-7.27,0.19C80.91,89.84,80.85,89.85,80.8,89.86z"/>
	<path id="Path_106" class="st2" d="M65.45,90.98c0.2-0.59-0.12-1.24-0.72-1.44c-0.05-0.02-0.1-0.03-0.15-0.04
		c-0.06-0.01-0.12-0.02-0.18-0.02l-7.27-0.19c-0.33,0-0.65,0.13-0.87,0.38c-0.1-0.02-0.21-0.03-0.31-0.03
		c-0.95-0.02-1.74,0.74-1.75,1.69c-0.02,0.94,0.73,1.72,1.67,1.75c0.26,0.01,0.52-0.05,0.76-0.15l0.67,7.15
		c0.13,0.48,0.57,0.82,1.07,0.83l4.73,0.12c0.5,0.01,0.94-0.3,1.1-0.77L65.45,90.98z M55.88,92.59c-0.68,0-1.23-0.56-1.23-1.24
		c0-0.68,0.56-1.23,1.24-1.23c0.02,0,0.03,0,0.05,0c0.02,0,0.04,0.01,0.07,0.01c-0.05,0.2-0.05,0.4,0,0.6l0.48,1.7
		C56.3,92.55,56.09,92.6,55.88,92.59z"/>
	<path id="Path_107" class="st9" d="M64.58,89.51c-0.15,0.89-1.9,1.51-3.99,1.4c-1.93-0.09-3.5-0.76-3.79-1.57
		c0.11-0.03,0.22-0.05,0.33-0.04l7.27,0.19C64.46,89.48,64.52,89.49,64.58,89.51z"/>
	<path id="Path_108" class="st3" d="M57.69,73.97c1.38-1,3.31-0.7,4.31,0.67c0.11,0.15,0.2,0.3,0.28,0.47l10.88-1.32l-2.54,5.1
		l-9.95,0.47c-1.58,0.65-3.4-0.11-4.05-1.69C56.08,76.34,56.52,74.81,57.69,73.97L57.69,73.97z"/>
	<path id="Path_109" class="st5" d="M93.19,63.59c-0.32,0.63-0.71,1.36-1.15,2.16c-1.54,2.82-3.66,6.45-5.29,9.22
		c-1.4,2.36-2.43,4.09-2.46,4.14l-0.04,0.07l-9.58,0.22l-2.05,0.05l-0.7,0.02l-7.5,0.17l0.07-0.45l0.7-4.42l0.07-0.45l6.57-1.09
		l2.4-0.4l5.33-0.88l0.93-2.73c1.63-4.8,4.36-9.16,7.96-12.73c0.1-0.1,0.21-0.2,0.33-0.29s0.2-0.15,0.3-0.22
		c0.43,0.61,0.82,1.17,1.14,1.61L91,58.64C92.07,60.11,92.82,61.8,93.19,63.59L93.19,63.59z"/>
	<path id="Path_110" class="st6" d="M53.36,79.92c0.16,0.47,0.61,0.78,1.1,0.77l4.73-0.12c0.5-0.01,0.93-0.35,1.07-0.83l0.67-7.15
		c0.24,0.11,0.5,0.16,0.76,0.15c0.95-0.03,1.7-0.83,1.67-1.78c-0.03-0.94-0.81-1.69-1.75-1.67c-0.1,0-0.21,0.01-0.31,0.03
		c-0.22-0.24-0.54-0.38-0.87-0.38l-7.27,0.19c-0.06,0-0.12,0.01-0.18,0.02c-0.62,0.11-1.02,0.71-0.91,1.32
		c0.01,0.05,0.02,0.1,0.04,0.15L53.36,79.92z M61.06,72.11l0.48-1.7c0.05-0.2,0.05-0.41,0-0.6c0.02,0,0.04-0.01,0.07-0.01
		c0.68,0,1.23,0.55,1.24,1.23c0,0.66-0.52,1.21-1.18,1.24C61.45,72.26,61.25,72.21,61.06,72.11L61.06,72.11z"/>
	<path id="Path_111" class="st9" d="M52.97,69.17c0.15,0.89,1.9,1.51,3.99,1.4c1.93-0.09,3.5-0.76,3.79-1.57
		c-0.11-0.03-0.22-0.05-0.33-0.04l-7.27,0.19C53.09,69.15,53.03,69.16,52.97,69.17z"/>
</g>
</svg>
